<?xml version="1.0" encoding="UTF-8" ?>
<!DOCTYPE svg PUBLIC "-//W3C//DTD SVG 1.1//EN" "http://www.w3.org/Graphics/SVG/1.1/DTD/svg11.dtd">
<svg width="512pt" height="512pt" viewBox="0 0 512 512" version="1.1" xmlns="http://www.w3.org/2000/svg">
<g id="#d58c3cff">
<path fill="#d58c3c" opacity="1.00" d=" M 302.11 0.00 L 489.00 0.00 C 501.22 -0.00 511.97 10.70 512.00 22.93 L 512.00 209.76 C 511.82 217.02 508.21 224.13 502.25 228.32 C 494.18 234.27 482.20 234.05 474.41 227.71 C 468.68 223.31 465.42 216.15 465.49 208.97 C 465.43 165.81 465.49 122.64 465.46 79.48 C 387.11 157.80 308.77 236.14 230.43 314.48 C 226.56 318.41 222.59 322.63 217.21 324.43 C 208.30 327.72 197.58 324.76 191.62 317.36 C 185.87 310.66 184.64 300.56 188.48 292.62 C 190.63 288.01 194.52 284.61 198.03 281.06 C 276.19 202.88 354.37 124.72 432.52 46.54 C 389.35 46.51 346.19 46.57 303.02 46.51 C 295.14 46.62 287.35 42.59 283.09 35.92 C 277.76 27.96 278.20 16.67 284.14 9.15 C 288.33 3.55 295.17 0.26 302.11 0.00 Z" />
<path fill="#d58c3c" opacity="1.00" d=" M 9.06 98.02 C 13.50 94.45 19.27 92.98 24.89 93.10 C 101.63 93.10 178.36 93.07 255.10 93.11 C 263.85 92.83 272.58 97.72 276.55 105.58 C 280.87 113.57 279.82 124.02 274.01 131.00 C 269.48 136.67 262.23 139.79 255.02 139.61 C 185.52 139.65 116.03 139.61 46.54 139.63 C 46.53 248.24 46.53 356.85 46.54 465.46 C 155.15 465.47 263.76 465.47 372.37 465.46 C 372.38 398.30 372.37 331.14 372.37 263.98 C 372.42 259.73 372.13 255.43 372.94 251.24 C 374.53 243.19 380.77 236.28 388.62 233.88 C 396.31 231.36 405.24 233.30 411.19 238.77 C 416.30 243.31 419.05 250.15 418.89 256.95 C 418.89 334.32 418.98 411.70 418.85 489.06 C 418.96 501.24 408.20 511.90 396.08 512.00 L 23.04 512.00 C 10.79 512.03 0.04 501.31 0.00 489.07 L 0.00 116.25 C 0.17 109.23 3.43 102.28 9.06 98.02 Z" />
</g>
</svg>
