<?xml version="1.0" encoding="UTF-8" ?>
<!DOCTYPE svg PUBLIC "-//W3C//DTD SVG 1.1//EN" "http://www.w3.org/Graphics/SVG/1.1/DTD/svg11.dtd">
<svg width="1024pt" height="1024pt" viewBox="0 0 1024 1024" version="1.1" xmlns="http://www.w3.org/2000/svg">
<g id="#5865f2ff">
<path fill="#5865f2" opacity="1.00" d=" M 496.37 0.00 L 527.17 0.00 C 566.17 1.65 605.12 6.78 642.86 16.91 C 721.22 37.45 794.38 77.21 854.50 131.47 C 905.50 177.36 947.20 233.59 976.17 295.79 C 999.43 345.62 1014.54 399.26 1020.63 453.91 C 1031.88 551.02 1014.53 651.29 971.01 738.86 C 938.67 804.23 892.16 862.52 835.65 908.61 C 772.74 960.12 697.39 996.34 617.78 1012.94 C 587.15 1019.53 555.89 1022.71 524.62 1024.00 L 499.78 1024.00 C 471.67 1022.86 443.57 1020.30 415.94 1014.89 C 353.45 1003.13 293.26 979.37 239.49 945.46 C 178.78 907.28 126.24 856.21 86.37 796.60 C 40.61 728.50 11.64 649.17 3.04 567.56 C 1.41 554.28 0.83 540.92 0.00 527.58 L 0.00 503.41 C 0.30 486.59 1.43 469.79 3.39 453.09 C 11.94 376.95 38.18 302.90 79.25 238.23 C 117.08 178.46 167.44 126.68 226.12 87.17 C 290.26 43.83 364.41 15.38 441.12 4.88 C 459.44 2.27 477.91 0.99 496.37 0.00 M 606.05 254.00 C 600.30 264.53 595.21 275.41 590.31 286.36 C 589.68 288.18 587.36 287.38 585.98 287.31 C 571.07 284.94 556.01 283.73 540.96 282.65 C 506.25 281.20 471.33 281.99 436.95 287.41 C 435.01 288.13 433.66 286.64 433.04 284.99 C 428.43 274.25 423.14 263.79 417.45 253.59 C 415.79 250.10 411.63 251.57 408.71 252.07 C 363.69 260.35 319.69 274.10 277.95 292.90 C 275.72 293.88 273.59 295.24 272.32 297.39 C 246.60 336.10 224.58 377.36 207.78 420.73 C 189.34 468.24 177.35 518.29 172.55 569.04 C 171.33 580.33 171.09 591.69 169.83 602.97 C 169.78 616.31 169.85 629.66 169.80 643.01 C 169.55 648.36 170.91 653.61 170.80 658.96 C 171.57 667.25 171.63 675.59 172.71 683.86 C 172.90 685.77 174.56 686.99 175.97 688.09 C 212.45 714.65 251.98 737.07 293.66 754.39 C 295.72 755.33 298.08 755.04 300.18 755.85 C 314.59 761.58 329.15 767.02 344.03 771.36 C 346.21 772.19 347.45 769.95 348.59 768.55 C 358.96 753.97 368.54 738.81 377.00 723.04 C 378.75 719.72 380.71 716.49 381.83 712.89 C 366.57 706.64 351.40 700.09 336.93 692.15 C 332.99 690.57 330.63 686.83 326.84 685.01 C 328.15 681.75 331.68 680.42 334.10 678.13 C 336.31 676.47 338.73 673.37 341.73 675.36 C 372.51 689.36 404.97 699.65 438.20 705.90 C 453.32 708.55 468.55 711.44 483.96 710.71 C 550.14 715.63 617.41 703.29 677.78 675.81 C 681.00 674.26 685.35 673.09 688.41 675.59 C 690.90 677.13 691.79 680.16 694.15 681.83 C 695.30 682.66 696.33 683.65 696.78 685.07 C 679.36 695.77 660.59 704.08 641.63 711.63 C 641.38 712.20 640.88 713.34 640.63 713.91 C 650.36 733.33 661.95 751.79 674.38 769.59 C 675.42 770.81 676.25 772.78 678.15 772.67 C 681.87 772.37 685.29 770.63 688.86 769.64 C 743.78 751.80 795.78 725.25 842.78 691.74 C 845.87 689.26 850.45 687.46 851.17 683.11 C 857.24 621.33 853.80 558.52 840.00 497.95 C 823.60 425.79 792.29 357.36 750.59 296.37 C 747.27 292.65 742.20 291.44 737.86 289.36 C 697.23 271.88 654.59 258.97 611.00 251.41 C 608.86 250.70 606.98 252.20 606.05 254.00 Z" />
<path fill="#5865f2" opacity="1.00" d=" M 391.17 469.09 C 395.44 468.61 399.79 468.30 404.07 468.90 C 408.64 471.07 413.78 471.40 418.44 473.32 C 434.66 479.40 447.48 492.99 453.94 508.92 C 458.70 520.62 460.16 533.48 459.28 546.03 C 457.44 565.39 447.31 583.97 431.55 595.49 C 419.50 604.28 403.83 608.33 389.11 605.40 C 376.18 603.14 364.50 595.89 355.74 586.26 C 351.04 583.60 348.54 578.68 345.88 574.20 C 335.48 555.26 333.95 531.83 341.38 511.59 C 348.92 490.04 368.05 471.97 391.17 469.09 Z" />
<path fill="#5865f2" opacity="1.00" d=" M 614.44 469.70 C 624.82 467.65 635.77 468.46 645.67 472.24 C 660.99 477.83 673.33 490.15 680.29 504.75 C 680.97 510.23 683.56 515.18 684.58 520.59 C 688.28 537.41 686.78 555.60 679.05 571.11 C 672.79 583.48 662.92 594.31 650.39 600.47 C 638.37 606.56 624.09 607.97 611.12 604.26 C 597.61 600.50 585.81 591.53 577.91 580.01 C 576.74 578.25 574.99 577.02 573.66 575.43 C 558.59 549.71 560.71 514.82 579.54 491.55 C 588.23 480.57 600.66 472.50 614.44 469.70 Z" />
</g>
<g id="#fefefeff">
<path fill="#fefefe" opacity="1.00" d=" M 606.05 254.00 C 606.98 252.20 608.86 250.70 611.00 251.41 C 654.59 258.97 697.23 271.88 737.86 289.36 C 742.20 291.44 747.27 292.65 750.59 296.37 C 792.29 357.36 823.60 425.79 840.00 497.95 C 853.80 558.52 857.24 621.33 851.17 683.11 C 850.45 687.46 845.87 689.26 842.78 691.74 C 795.78 725.25 743.78 751.80 688.86 769.64 C 685.29 770.63 681.87 772.37 678.15 772.67 C 676.25 772.78 675.42 770.81 674.38 769.59 C 661.95 751.79 650.36 733.33 640.63 713.91 C 640.88 713.34 641.38 712.20 641.63 711.63 C 660.59 704.08 679.36 695.77 696.78 685.07 C 696.33 683.65 695.30 682.66 694.15 681.83 C 691.79 680.16 690.90 677.13 688.41 675.59 C 685.35 673.09 681.00 674.26 677.78 675.81 C 617.41 703.29 550.14 715.63 483.96 710.71 C 468.55 711.44 453.32 708.55 438.20 705.90 C 404.97 699.65 372.51 689.36 341.73 675.36 C 338.73 673.37 336.31 676.47 334.10 678.13 C 331.68 680.42 328.15 681.75 326.84 685.01 C 330.63 686.83 332.99 690.57 336.93 692.15 C 351.40 700.09 366.57 706.64 381.83 712.89 C 380.71 716.49 378.75 719.72 377.00 723.04 C 368.54 738.81 358.96 753.97 348.59 768.55 C 347.45 769.95 346.21 772.19 344.03 771.36 C 329.15 767.02 314.59 761.58 300.18 755.85 C 298.08 755.04 295.72 755.33 293.66 754.39 C 251.98 737.07 212.45 714.65 175.97 688.09 C 174.56 686.99 172.90 685.77 172.71 683.86 C 171.63 675.59 171.57 667.25 170.80 658.96 C 170.91 653.61 169.55 648.36 169.80 643.01 C 169.85 629.66 169.78 616.31 169.83 602.97 C 171.09 591.69 171.33 580.33 172.55 569.04 C 177.35 518.29 189.34 468.24 207.78 420.73 C 224.58 377.36 246.60 336.10 272.32 297.39 C 273.59 295.24 275.72 293.88 277.95 292.90 C 319.69 274.10 363.69 260.35 408.71 252.07 C 411.63 251.57 415.79 250.10 417.45 253.59 C 423.14 263.79 428.43 274.25 433.04 284.99 C 433.66 286.64 435.01 288.13 436.95 287.41 C 471.33 281.99 506.25 281.20 540.96 282.65 C 556.01 283.73 571.07 284.94 585.98 287.31 C 587.36 287.38 589.68 288.18 590.31 286.36 C 595.21 275.41 600.30 264.53 606.05 254.00 M 391.17 469.09 C 368.05 471.97 348.92 490.04 341.38 511.59 C 333.95 531.83 335.48 555.26 345.88 574.20 C 348.54 578.68 351.04 583.60 355.74 586.26 C 364.50 595.89 376.18 603.14 389.11 605.40 C 403.83 608.33 419.50 604.28 431.55 595.49 C 447.31 583.97 457.44 565.39 459.28 546.03 C 460.16 533.48 458.70 520.62 453.94 508.92 C 447.48 492.99 434.66 479.40 418.44 473.32 C 413.78 471.40 408.64 471.07 404.07 468.90 C 399.79 468.30 395.44 468.61 391.17 469.09 M 614.44 469.70 C 600.66 472.50 588.23 480.57 579.54 491.55 C 560.71 514.82 558.59 549.71 573.66 575.43 C 574.99 577.02 576.74 578.25 577.91 580.01 C 585.81 591.53 597.61 600.50 611.12 604.26 C 624.09 607.97 638.37 606.56 650.39 600.47 C 662.92 594.31 672.79 583.48 679.05 571.11 C 686.78 555.60 688.28 537.41 684.58 520.59 C 683.56 515.18 680.97 510.23 680.29 504.75 C 673.33 490.15 660.99 477.83 645.67 472.24 C 635.77 468.46 624.82 467.65 614.44 469.70 Z" />
</g>
</svg>
