<?xml version="1.0" encoding="UTF-8" ?>
<!DOCTYPE svg PUBLIC "-//W3C//DTD SVG 1.1//EN" "http://www.w3.org/Graphics/SVG/1.1/DTD/svg11.dtd">
<svg width="420pt" height="420pt" viewBox="0 0 420 420" version="1.1" xmlns="http://www.w3.org/2000/svg">
<g id="#000000ff">
<path fill="#000000" opacity="1.00" d=" M 262.69 59.65 C 263.67 57.84 265.40 55.76 267.73 56.44 C 295.81 61.33 323.26 69.84 349.19 81.66 C 351.02 82.53 351.75 84.60 352.91 86.13 C 370.98 113.34 385.89 142.78 395.88 173.93 C 410.30 218.11 414.89 265.33 410.19 311.52 C 410.14 313.01 409.09 314.14 407.99 315.01 C 378.07 337.00 344.49 354.06 308.96 364.91 C 307.33 365.53 305.13 365.46 304.07 363.89 C 296.67 353.68 290.02 342.92 284.17 331.76 C 283.20 330.02 282.38 327.59 284.05 325.99 C 286.54 324.22 289.61 323.55 292.36 322.28 C 300.08 319.21 307.34 315.15 314.78 311.49 C 313.34 310.36 311.91 309.22 310.49 308.09 C 276.94 323.39 239.94 331.42 203.03 330.22 C 170.66 329.26 138.68 321.29 109.15 308.11 C 107.82 309.25 106.48 310.39 105.13 311.50 C 115.27 316.88 125.71 321.63 136.30 326.04 C 136.74 327.92 136.86 329.92 135.75 331.61 C 130.01 342.58 123.56 353.22 116.17 363.17 C 115.02 365.20 112.41 365.78 110.36 364.81 C 75.09 353.86 41.70 336.93 11.98 315.03 C 8.68 312.82 9.68 308.39 9.12 305.03 C 5.18 256.29 11.58 206.64 28.77 160.80 C 38.53 134.49 51.65 109.49 67.05 86.05 C 68.17 84.53 68.91 82.50 70.72 81.64 C 96.63 69.82 124.05 61.32 152.12 56.44 C 154.62 55.71 156.36 57.94 157.37 59.89 C 160.45 65.64 163.37 71.47 165.99 77.44 C 195.14 73.17 224.91 73.19 254.06 77.44 C 256.67 71.39 259.59 65.47 262.69 59.65 M 73.01 86.21 C 57.08 109.74 43.79 135.11 33.74 161.71 C 15.62 208.97 9.89 260.45 14.55 310.72 C 44.02 332.53 77.20 349.27 112.19 360.21 C 119.41 350.42 125.71 339.98 131.39 329.22 C 120.43 324.98 109.80 319.89 99.69 313.89 C 99.30 312.32 99.32 310.73 99.71 309.18 C 102.53 307.44 104.80 304.97 107.65 303.29 C 110.19 302.33 112.51 304.25 114.81 305.05 C 153.59 322.21 197.01 328.93 239.12 323.51 C 263.82 320.56 287.76 312.99 310.37 302.75 C 313.89 303.86 316.55 306.61 319.31 308.93 C 321.48 310.71 320.36 313.94 318.10 315.03 C 308.65 320.63 298.66 325.34 288.39 329.19 C 294.13 339.94 300.54 350.33 307.52 360.31 C 342.53 349.24 375.80 332.61 405.35 310.77 C 409.85 263.12 405.05 214.34 389.04 169.11 C 378.85 139.70 364.30 111.90 346.91 86.13 C 321.57 74.54 294.77 66.20 267.34 61.30 C 264.33 67.60 260.96 73.72 258.34 80.20 C 257.75 81.91 255.99 83.10 254.19 82.46 C 224.94 78.18 195.07 78.18 165.83 82.47 C 164.10 83.05 162.34 82.06 161.84 80.34 C 159.04 73.87 155.71 67.65 152.58 61.33 C 125.15 66.20 98.25 74.42 73.01 86.21 Z" />
<path fill="#000000" opacity="1.00" d=" M 136.27 184.21 C 145.83 181.93 156.23 184.22 164.26 189.80 C 172.35 195.56 178.30 204.23 180.64 213.90 C 184.09 227.06 181.60 241.77 173.66 252.86 C 168.21 260.27 160.22 266.03 151.11 267.84 C 141.48 270.05 131.10 267.55 123.15 261.82 C 116.07 256.41 110.38 248.97 107.86 240.35 C 103.47 227.08 105.50 211.82 113.29 200.20 C 118.82 192.48 126.77 186.09 136.27 184.21 M 135.38 189.55 C 120.99 193.80 111.38 208.40 110.66 223.03 C 109.45 237.00 116.05 251.53 128.00 259.09 C 137.08 264.86 149.30 265.22 158.60 259.75 C 171.73 252.47 178.45 236.62 177.02 222.00 C 176.20 210.19 169.69 198.78 159.47 192.66 C 152.35 188.31 143.38 187.13 135.38 189.55 Z" />
<path fill="#000000" opacity="1.00" d=" M 269.31 184.09 C 278.37 182.11 288.17 184.12 295.88 189.21 C 304.33 194.53 310.29 203.38 312.91 212.94 C 316.64 225.98 314.42 240.65 306.87 251.93 C 301.60 259.83 293.30 265.77 283.98 267.76 C 275.12 269.87 265.49 268.05 257.82 263.23 C 248.12 257.34 241.52 247.02 239.23 236.00 C 236.96 226.56 238.20 216.53 241.78 207.58 C 246.63 196.07 256.84 186.49 269.31 184.09 M 271.50 188.69 C 261.00 190.43 251.97 197.91 247.39 207.39 C 239.56 222.75 242.51 243.07 255.14 255.00 C 260.57 259.87 267.51 263.41 274.92 263.60 C 285.80 264.31 296.57 258.39 302.53 249.40 C 313.45 233.81 311.93 210.33 297.96 197.06 C 290.97 190.49 281.04 187.04 271.50 188.69 Z" />
</g>
<g id="#ffffffff">
<path fill="#ffffff" opacity="1.00" d=" M 73.01 86.21 C 98.25 74.42 125.15 66.20 152.58 61.33 C 155.71 67.65 159.04 73.87 161.84 80.34 C 162.34 82.06 164.10 83.05 165.83 82.47 C 195.07 78.18 224.94 78.18 254.19 82.46 C 255.99 83.10 257.75 81.91 258.34 80.20 C 260.96 73.72 264.33 67.60 267.34 61.30 C 294.77 66.20 321.57 74.54 346.91 86.13 C 364.30 111.90 378.85 139.70 389.04 169.11 C 405.05 214.34 409.85 263.12 405.35 310.77 C 375.80 332.61 342.53 349.24 307.52 360.31 C 300.54 350.33 294.13 339.94 288.39 329.19 C 298.66 325.34 308.65 320.63 318.10 315.03 C 320.36 313.94 321.48 310.71 319.31 308.93 C 316.55 306.61 313.89 303.86 310.37 302.75 C 287.76 312.99 263.82 320.56 239.12 323.51 C 197.01 328.93 153.59 322.21 114.81 305.05 C 112.51 304.25 110.19 302.33 107.65 303.29 C 104.80 304.97 102.53 307.44 99.71 309.18 C 99.32 310.73 99.30 312.32 99.69 313.89 C 109.80 319.89 120.43 324.98 131.39 329.22 C 125.71 339.98 119.41 350.42 112.19 360.21 C 77.20 349.27 44.02 332.53 14.55 310.72 C 9.89 260.45 15.62 208.97 33.74 161.71 C 43.79 135.11 57.08 109.74 73.01 86.21 M 136.27 184.21 C 126.77 186.09 118.82 192.48 113.29 200.20 C 105.50 211.82 103.47 227.08 107.86 240.35 C 110.38 248.97 116.07 256.41 123.15 261.82 C 131.10 267.55 141.48 270.05 151.11 267.84 C 160.22 266.03 168.21 260.27 173.66 252.86 C 181.60 241.77 184.09 227.06 180.64 213.90 C 178.30 204.23 172.35 195.56 164.26 189.80 C 156.23 184.22 145.83 181.93 136.27 184.21 M 269.31 184.09 C 256.84 186.49 246.63 196.07 241.78 207.58 C 238.20 216.53 236.96 226.56 239.23 236.00 C 241.52 247.02 248.12 257.34 257.82 263.23 C 265.49 268.05 275.12 269.87 283.98 267.76 C 293.30 265.77 301.60 259.83 306.87 251.93 C 314.42 240.65 316.64 225.98 312.91 212.94 C 310.29 203.38 304.33 194.53 295.88 189.21 C 288.17 184.12 278.37 182.11 269.31 184.09 Z" />
</g>
</svg>
