<?xml version="1.0" encoding="UTF-8" ?>
<!DOCTYPE svg PUBLIC "-//W3C//DTD SVG 1.1//EN" "http://www.w3.org/Graphics/SVG/1.1/DTD/svg11.dtd">
<svg width="420pt" height="420pt" viewBox="0 0 420 420" version="1.1" xmlns="http://www.w3.org/2000/svg">
<g id="#000000ff">
<path fill="#000000" opacity="1.00" d=" M 149.33 10.31 C 172.21 9.78 195.11 10.13 217.99 10.03 C 243.89 10.00 269.80 9.85 295.66 11.25 C 317.82 12.52 340.25 17.83 359.12 29.91 C 373.77 39.69 386.33 52.90 394.34 68.66 C 401.07 81.47 404.90 95.62 407.00 109.88 C 407.55 117.97 409.47 125.94 409.11 134.08 C 410.43 166.38 409.72 198.72 409.90 231.03 C 410.13 251.37 409.57 271.71 409.01 292.03 C 407.34 306.78 405.95 321.75 400.81 335.80 C 394.99 353.36 384.27 369.17 370.23 381.21 C 352.53 396.97 329.11 404.77 305.87 407.41 C 298.90 408.02 292.01 409.45 284.99 409.12 C 257.68 410.30 230.34 409.79 203.01 409.90 C 180.37 409.87 157.72 410.15 135.10 409.13 C 127.01 409.46 119.06 407.89 111.04 407.14 C 93.94 404.91 77.07 399.72 62.25 390.78 C 42.84 378.58 27.35 360.02 19.71 338.33 C 9.71 312.43 10.85 284.26 10.05 257.00 C 10.01 225.66 10.02 194.31 10.04 162.96 C 10.55 145.91 10.31 128.79 12.35 111.82 C 14.70 93.16 20.41 74.67 30.93 58.94 C 38.63 47.85 48.37 38.15 59.53 30.53 C 74.37 20.83 91.61 15.21 109.09 12.78 C 122.40 10.68 135.90 10.82 149.33 10.31 M 133.62 14.89 C 116.08 15.60 98.25 17.32 81.79 23.82 C 64.89 29.83 50.14 41.07 38.93 54.96 C 25.67 71.38 18.77 92.14 16.43 112.91 C 14.54 129.53 14.44 146.29 14.04 162.99 C 14.02 193.66 14.04 224.33 14.03 254.99 C 14.34 271.71 14.58 288.45 16.24 305.09 C 18.19 324.45 24.24 343.64 35.27 359.78 C 46.04 374.79 60.70 387.31 77.97 394.16 C 99.32 403.57 123.09 404.79 146.10 404.97 C 156.65 406.32 167.36 405.75 177.98 405.89 C 207.66 405.76 237.35 406.17 267.02 405.66 C 276.43 404.20 286.02 405.36 295.46 404.17 C 313.90 403.21 332.50 399.44 348.95 390.80 C 359.79 385.30 369.43 377.56 377.40 368.43 C 388.87 355.83 396.15 339.91 400.27 323.50 C 404.04 306.91 404.93 289.85 404.97 272.90 C 406.29 262.99 405.77 252.93 405.89 242.95 C 405.79 213.62 406.12 184.28 405.71 154.95 C 405.85 152.31 405.07 149.75 404.97 147.13 C 404.81 125.24 403.83 102.80 395.89 82.14 C 388.72 62.10 374.59 44.76 356.74 33.25 C 340.12 22.64 320.56 17.38 301.03 15.82 C 279.72 14.17 258.33 13.97 236.97 14.03 C 202.52 14.28 168.05 13.37 133.62 14.89 Z" />
<path fill="#000000" opacity="1.00" d=" M 142.46 46.14 C 148.63 45.72 154.82 45.91 161.01 45.73 C 196.65 45.80 232.30 45.57 267.95 45.88 C 289.03 46.95 311.06 46.26 330.67 55.34 C 342.42 60.35 352.19 69.31 359.40 79.74 C 367.75 92.98 371.44 108.63 372.36 124.11 C 373.71 137.36 372.99 150.73 373.99 163.99 C 374.04 189.99 374.00 215.98 374.01 241.97 C 374.19 255.65 373.21 269.29 373.12 282.97 C 372.57 301.02 370.49 319.67 361.80 335.83 C 353.77 349.58 341.08 360.72 326.01 366.10 C 307.21 373.19 286.78 372.88 266.99 373.39 C 259.01 373.81 251.00 373.19 243.04 374.00 C 221.36 374.04 199.67 373.98 177.98 374.02 C 156.68 372.92 135.22 374.08 114.02 371.18 C 97.64 368.83 80.99 362.89 69.37 350.62 C 59.08 341.06 52.81 327.89 49.94 314.28 C 46.98 302.11 46.82 289.52 46.34 277.07 C 45.59 268.72 45.99 260.32 45.73 251.95 C 45.84 217.29 45.50 182.63 45.97 147.97 C 47.00 132.20 46.53 116.09 51.08 100.78 C 56.24 79.60 72.15 61.17 92.74 53.68 C 108.52 47.38 125.71 46.91 142.46 46.14 M 133.58 50.74 C 114.80 51.29 94.99 54.04 79.40 65.36 C 73.28 70.20 67.66 75.82 63.37 82.37 C 56.29 93.74 52.98 107.02 51.61 120.23 C 50.15 139.14 50.01 158.12 50.04 177.08 C 50.09 206.72 49.90 236.37 50.17 266.02 C 50.31 272.97 50.24 279.93 50.94 286.85 C 51.19 299.88 52.70 313.16 57.56 325.35 C 62.45 338.76 72.29 350.20 84.56 357.42 C 95.35 363.53 107.61 366.65 119.90 367.74 C 140.22 369.59 160.65 369.48 181.04 369.76 C 211.69 369.68 242.34 370.02 272.98 369.26 C 290.71 368.40 309.05 368.62 325.79 361.85 C 337.88 357.45 347.92 348.70 355.42 338.40 C 365.70 323.04 368.17 304.12 368.77 286.05 C 370.21 260.39 369.64 234.68 369.76 208.99 C 369.66 183.66 370.18 158.32 368.76 133.02 C 368.16 120.88 367.31 108.50 363.05 97.00 C 357.64 79.80 344.37 65.24 327.68 58.40 C 317.69 54.13 306.87 52.22 296.10 51.29 C 286.41 51.01 276.75 50.06 267.04 50.18 C 232.01 49.87 196.98 50.11 161.95 50.03 C 152.49 50.24 143.01 50.03 133.58 50.74 Z" />
<path fill="#000000" opacity="1.00" d=" M 309.38 79.07 C 322.26 75.68 336.83 83.98 340.19 96.90 C 344.39 109.62 336.58 124.72 323.80 128.69 C 309.70 134.28 292.24 123.98 290.01 109.06 C 287.09 95.98 296.23 81.78 309.38 79.07 M 302.60 86.49 C 297.04 90.49 293.52 97.09 293.66 104.00 C 293.12 114.87 302.00 124.90 312.79 125.83 C 321.25 126.87 330.22 122.67 334.35 115.12 C 337.29 110.65 337.21 105.12 336.77 100.00 C 335.41 92.77 330.20 86.33 323.23 83.84 C 316.49 81.23 308.43 82.15 302.60 86.49 Z" />
<path fill="#000000" opacity="1.00" d=" M 201.41 106.23 C 224.10 104.67 247.33 111.00 266.17 123.75 C 283.64 135.34 297.17 152.53 304.97 171.93 C 309.42 183.79 311.79 196.38 312.12 209.04 C 312.00 230.88 305.39 252.85 292.36 270.50 C 279.09 288.84 259.77 302.87 237.96 309.15 C 212.69 316.99 184.38 314.26 160.91 302.10 C 140.93 292.08 124.70 275.17 114.82 255.18 C 109.94 245.09 106.95 234.17 105.17 223.13 C 104.12 210.63 104.04 197.82 107.33 185.62 C 111.21 168.55 119.88 152.63 131.74 139.79 C 149.47 120.12 175.02 107.96 201.41 106.23 M 197.71 110.69 C 171.05 113.27 145.91 127.41 129.53 148.55 C 115.14 166.97 107.67 190.58 108.59 213.92 C 109.77 247.12 128.76 279.01 157.52 295.69 C 176.21 306.69 198.53 311.47 220.08 308.78 C 241.03 306.30 261.22 297.11 276.45 282.44 C 291.17 268.84 301.42 250.57 305.70 231.01 C 308.95 214.63 308.65 197.32 303.70 181.31 C 295.93 154.31 275.95 131.12 250.38 119.48 C 234.11 111.64 215.62 108.95 197.71 110.69 Z" />
<path fill="#000000" opacity="1.00" d=" M 199.42 142.73 C 222.43 138.89 247.03 148.23 261.81 166.25 C 271.87 178.05 277.63 193.48 277.63 208.99 C 278.09 227.28 270.42 245.59 257.21 258.22 C 243.96 271.56 224.81 278.70 206.06 277.52 C 182.29 276.55 159.92 261.69 149.29 240.48 C 138.76 220.10 139.55 194.24 151.73 174.75 C 161.91 157.79 179.84 145.65 199.42 142.73 M 199.54 146.78 C 177.49 150.28 157.77 166.19 150.20 187.26 C 144.71 201.20 144.59 217.19 149.80 231.24 C 155.02 246.38 166.40 259.21 180.63 266.51 C 196.16 274.76 215.11 275.65 231.59 269.80 C 247.60 263.98 261.10 251.57 268.04 235.99 C 273.10 224.77 274.85 212.03 272.80 199.89 C 270.20 181.48 258.68 164.69 242.79 155.16 C 229.97 147.30 214.36 144.43 199.54 146.78 Z" />
</g>
<g id="#ffffffff">
<path fill="#ffffff" opacity="1.00" d=" M 133.62 14.89 C 168.05 13.37 202.52 14.28 236.97 14.03 C 258.33 13.97 279.72 14.17 301.03 15.82 C 320.56 17.38 340.12 22.64 356.74 33.25 C 374.59 44.76 388.72 62.10 395.89 82.14 C 403.83 102.80 404.81 125.24 404.97 147.13 C 405.07 149.75 405.85 152.31 405.71 154.95 C 406.12 184.28 405.79 213.62 405.89 242.95 C 405.77 252.93 406.29 262.99 404.97 272.90 C 404.93 289.85 404.04 306.91 400.27 323.50 C 396.15 339.91 388.87 355.83 377.40 368.43 C 369.43 377.56 359.79 385.30 348.95 390.80 C 332.50 399.44 313.90 403.21 295.46 404.17 C 286.02 405.36 276.43 404.20 267.02 405.66 C 237.35 406.17 207.66 405.76 177.98 405.89 C 167.36 405.75 156.65 406.32 146.10 404.97 C 123.09 404.79 99.32 403.57 77.97 394.16 C 60.70 387.31 46.04 374.79 35.27 359.78 C 24.24 343.64 18.19 324.45 16.24 305.09 C 14.58 288.45 14.34 271.71 14.03 254.99 C 14.04 224.33 14.02 193.66 14.04 162.99 C 14.44 146.29 14.54 129.53 16.43 112.91 C 18.77 92.14 25.67 71.38 38.93 54.96 C 50.14 41.07 64.89 29.83 81.79 23.82 C 98.25 17.32 116.08 15.60 133.62 14.89 M 142.46 46.14 C 125.71 46.91 108.52 47.38 92.74 53.68 C 72.15 61.17 56.24 79.60 51.08 100.78 C 46.53 116.09 47.00 132.20 45.97 147.97 C 45.50 182.63 45.84 217.29 45.73 251.95 C 45.99 260.32 45.59 268.72 46.34 277.07 C 46.82 289.52 46.98 302.11 49.94 314.28 C 52.81 327.89 59.08 341.06 69.37 350.62 C 80.99 362.89 97.64 368.83 114.02 371.18 C 135.22 374.08 156.68 372.92 177.98 374.02 C 199.67 373.98 221.36 374.04 243.04 374.00 C 251.00 373.19 259.01 373.81 266.99 373.39 C 286.78 372.88 307.21 373.19 326.01 366.10 C 341.08 360.72 353.77 349.58 361.80 335.83 C 370.49 319.67 372.57 301.02 373.12 282.97 C 373.21 269.29 374.19 255.65 374.01 241.97 C 374.00 215.98 374.04 189.99 373.99 163.99 C 372.99 150.73 373.71 137.36 372.36 124.11 C 371.44 108.63 367.75 92.98 359.40 79.74 C 352.19 69.31 342.42 60.35 330.67 55.34 C 311.06 46.26 289.03 46.95 267.95 45.88 C 232.30 45.57 196.65 45.80 161.01 45.73 C 154.82 45.91 148.63 45.72 142.46 46.14 Z" />
<path fill="#ffffff" opacity="1.00" d=" M 302.60 86.49 C 308.43 82.15 316.49 81.23 323.23 83.84 C 330.20 86.33 335.41 92.77 336.77 100.00 C 337.21 105.12 337.29 110.65 334.35 115.12 C 330.22 122.67 321.25 126.87 312.79 125.83 C 302.00 124.90 293.12 114.87 293.66 104.00 C 293.52 97.09 297.04 90.49 302.60 86.49 Z" />
<path fill="#ffffff" opacity="1.00" d=" M 197.71 110.69 C 215.62 108.95 234.11 111.64 250.38 119.48 C 275.95 131.12 295.93 154.31 303.70 181.31 C 308.65 197.32 308.95 214.63 305.70 231.01 C 301.42 250.57 291.17 268.84 276.45 282.44 C 261.22 297.11 241.03 306.30 220.08 308.78 C 198.53 311.47 176.21 306.69 157.52 295.69 C 128.76 279.01 109.77 247.12 108.59 213.92 C 107.67 190.58 115.14 166.97 129.53 148.55 C 145.91 127.41 171.05 113.27 197.71 110.69 M 199.42 142.73 C 179.84 145.65 161.91 157.79 151.73 174.75 C 139.55 194.24 138.76 220.10 149.29 240.48 C 159.92 261.69 182.29 276.55 206.06 277.52 C 224.81 278.70 243.96 271.56 257.21 258.22 C 270.42 245.59 278.09 227.28 277.63 208.99 C 277.63 193.48 271.87 178.05 261.81 166.25 C 247.03 148.23 222.43 138.89 199.42 142.73 Z" />
</g>
</svg>
