<?xml version="1.0" encoding="UTF-8" ?>
<!DOCTYPE svg PUBLIC "-//W3C//DTD SVG 1.1//EN" "http://www.w3.org/Graphics/SVG/1.1/DTD/svg11.dtd">
<svg width="420pt" height="420pt" viewBox="0 0 420 420" version="1.1" xmlns="http://www.w3.org/2000/svg">
<g id="#000000ff">
<path fill="#000000" opacity="1.00" d=" M 225.40 18.10 C 226.18 11.88 233.08 7.74 238.94 10.19 C 264.33 15.89 289.75 21.46 315.15 27.15 C 319.80 19.55 326.96 13.23 335.67 10.82 C 345.81 7.64 357.26 9.95 365.77 16.20 C 378.05 25.00 383.08 42.49 377.29 56.47 C 373.54 66.23 365.15 74.08 355.08 76.97 C 344.14 80.39 331.47 77.77 322.90 70.14 C 315.84 64.12 311.66 55.17 311.07 45.95 C 288.19 40.69 265.22 35.78 242.36 30.39 C 236.99 55.50 231.27 80.54 225.76 105.62 C 223.97 113.25 222.56 120.97 220.52 128.53 C 259.12 130.00 298.02 140.73 330.25 162.45 C 346.58 146.27 375.64 145.71 392.27 161.71 C 407.48 175.57 411.38 200.21 400.81 217.95 C 396.68 225.00 390.45 230.72 383.33 234.68 C 388.43 256.59 384.41 280.09 373.84 299.79 C 362.75 320.45 345.23 337.12 325.52 349.54 C 296.30 367.77 262.25 377.42 228.04 379.89 C 190.35 382.51 151.78 376.51 117.35 360.70 C 91.08 348.57 66.94 330.19 51.63 305.31 C 38.72 284.63 33.67 259.06 38.64 235.11 C 28.26 229.56 19.80 220.15 16.43 208.77 C 11.93 194.51 15.09 178.15 24.41 166.49 C 30.55 158.71 39.38 153.16 49.09 151.14 C 63.99 147.60 80.47 152.05 91.44 162.76 C 123.61 140.93 162.46 130.32 201.03 128.33 C 209.21 91.60 217.26 54.84 225.40 18.10 M 232.26 14.24 C 229.53 15.67 229.24 19.12 228.57 21.79 C 220.66 57.79 212.69 93.79 204.74 129.78 C 204.54 131.73 202.56 132.41 200.88 132.34 C 165.27 134.05 129.65 143.59 99.19 162.39 C 96.64 163.89 94.32 165.75 91.68 167.09 C 89.50 167.47 88.41 165.27 86.95 164.12 C 78.59 156.66 67.04 153.06 55.91 154.11 C 44.05 154.83 32.64 161.16 25.97 171.04 C 18.72 181.34 16.53 194.94 20.00 207.03 C 22.64 215.63 28.08 223.42 35.55 228.50 C 37.97 230.36 41.09 231.33 42.94 233.88 C 39.89 247.80 40.02 262.45 43.49 276.28 C 48.93 297.54 61.95 316.25 78.19 330.73 C 103.06 352.67 134.57 366.13 166.93 372.38 C 203.27 379.19 241.30 377.65 276.79 367.08 C 301.90 359.45 325.99 347.25 345.44 329.44 C 357.43 318.35 367.70 305.17 374.09 290.06 C 381.55 272.93 383.56 253.41 379.41 235.18 C 379.32 234.14 379.42 233.10 379.71 232.08 C 386.63 228.70 392.66 223.45 396.78 216.94 C 406.92 201.09 403.92 178.52 390.45 165.52 C 380.58 155.24 364.95 151.85 351.33 155.16 C 343.60 157.04 336.88 161.56 331.03 166.80 C 328.52 166.59 326.66 164.64 324.56 163.45 C 293.47 143.57 256.63 133.84 219.95 132.40 C 217.87 132.66 215.90 131.02 216.62 128.82 C 223.95 95.66 231.33 62.51 238.67 29.35 C 238.80 27.74 240.15 25.77 241.97 26.41 C 265.90 31.74 289.81 37.18 313.75 42.50 C 314.06 42.86 314.68 43.57 315.00 43.92 C 314.90 55.12 321.34 66.16 331.43 71.16 C 343.38 77.56 359.32 74.40 368.08 64.10 C 375.27 56.08 377.66 44.16 374.07 34.00 C 370.60 23.80 361.42 15.76 350.79 13.88 C 338.86 11.47 325.98 17.33 319.65 27.64 C 318.58 29.30 317.48 31.98 314.98 31.09 C 289.29 25.40 263.59 19.70 237.90 13.98 C 236.04 13.61 233.94 13.05 232.26 14.24 Z" />
<path fill="#000000" opacity="1.00" d=" M 132.44 204.61 C 139.90 202.95 147.84 204.12 154.68 207.46 C 164.41 212.38 171.53 222.14 173.08 232.96 C 175.45 246.69 168.28 261.32 156.09 268.01 C 147.15 273.03 135.97 273.76 126.49 269.85 C 116.36 265.90 108.42 256.79 106.02 246.18 C 102.62 232.77 108.39 217.53 119.96 209.90 C 123.68 207.27 127.99 205.55 132.44 204.61 M 132.36 208.65 C 118.74 211.66 108.39 225.03 109.06 239.00 C 109.06 253.68 121.40 266.97 136.00 268.20 C 148.13 269.76 160.70 262.99 166.15 252.07 C 172.31 240.68 169.81 225.44 160.46 216.52 C 153.32 209.17 142.26 206.27 132.36 208.65 Z" />
<path fill="#000000" opacity="1.00" d=" M 274.48 204.77 C 289.93 201.06 307.22 209.76 313.28 224.50 C 319.86 238.74 314.82 256.89 302.03 265.89 C 293.06 272.45 280.82 274.27 270.37 270.45 C 255.61 265.45 245.66 249.38 248.03 233.92 C 249.65 219.94 260.63 207.61 274.48 204.77 M 274.48 208.80 C 259.36 212.38 249.08 228.72 252.21 243.91 C 254.40 256.44 265.39 266.83 278.05 268.23 C 286.13 269.27 294.54 266.89 300.88 261.77 C 311.77 253.36 315.43 237.13 309.07 224.90 C 303.23 212.23 287.92 205.26 274.48 208.80 Z" />
<path fill="#000000" opacity="1.00" d=" M 141.17 300.07 C 144.68 298.89 148.70 300.01 151.24 302.67 C 163.32 313.55 180.06 316.92 195.74 318.67 C 211.17 320.10 226.88 319.44 242.00 315.93 C 252.24 313.43 262.53 309.55 270.34 302.23 C 273.37 299.21 278.45 298.80 282.05 301.03 C 287.10 304.06 288.43 311.77 284.14 316.00 C 270.06 329.60 250.36 335.17 231.45 337.87 C 206.93 340.92 181.31 339.04 158.27 329.68 C 150.04 326.17 142.06 321.53 136.05 314.79 C 132.33 309.79 135.19 301.72 141.17 300.07 M 141.25 304.32 C 138.28 305.89 137.23 310.57 139.75 313.01 C 145.56 319.00 152.99 323.19 160.64 326.38 C 181.72 334.85 205.04 336.52 227.48 334.33 C 246.03 332.22 265.30 327.27 279.68 314.73 C 281.85 313.11 283.69 310.27 282.43 307.53 C 281.40 303.67 275.94 302.20 273.15 305.07 C 265.39 312.38 255.30 316.59 245.09 319.19 C 225.68 324.12 205.21 324.57 185.49 321.28 C 172.26 318.86 158.58 314.91 148.47 305.58 C 146.71 303.54 143.59 302.91 141.25 304.32 Z" />
</g>
<g id="#ffffffff">
<path fill="#ffffff" opacity="1.00" d=" M 232.26 14.24 C 233.94 13.05 236.04 13.61 237.90 13.98 C 263.59 19.70 289.29 25.40 314.98 31.09 C 317.48 31.98 318.58 29.30 319.65 27.64 C 325.98 17.33 338.86 11.47 350.79 13.88 C 361.42 15.76 370.60 23.80 374.07 34.00 C 377.66 44.16 375.27 56.08 368.08 64.10 C 359.32 74.40 343.38 77.56 331.43 71.16 C 321.34 66.16 314.90 55.12 315.00 43.92 C 314.68 43.57 314.06 42.86 313.75 42.50 C 289.81 37.18 265.90 31.74 241.97 26.41 C 240.15 25.77 238.80 27.74 238.67 29.35 C 231.33 62.51 223.95 95.66 216.62 128.82 C 215.90 131.02 217.87 132.66 219.95 132.40 C 256.63 133.84 293.47 143.57 324.56 163.45 C 326.66 164.64 328.52 166.59 331.03 166.80 C 336.88 161.56 343.60 157.04 351.33 155.16 C 364.95 151.85 380.58 155.24 390.45 165.52 C 403.92 178.52 406.92 201.09 396.78 216.94 C 392.66 223.45 386.63 228.70 379.71 232.08 C 379.42 233.10 379.32 234.14 379.41 235.18 C 383.56 253.41 381.55 272.93 374.09 290.06 C 367.70 305.17 357.43 318.35 345.44 329.44 C 325.99 347.25 301.90 359.45 276.79 367.08 C 241.30 377.65 203.27 379.19 166.93 372.38 C 134.57 366.13 103.06 352.67 78.19 330.73 C 61.95 316.25 48.93 297.54 43.49 276.28 C 40.02 262.45 39.89 247.80 42.94 233.88 C 41.09 231.33 37.97 230.36 35.55 228.50 C 28.08 223.42 22.64 215.63 20.00 207.03 C 16.53 194.94 18.72 181.34 25.97 171.04 C 32.64 161.16 44.05 154.83 55.91 154.11 C 67.04 153.06 78.59 156.66 86.95 164.12 C 88.41 165.27 89.50 167.47 91.68 167.09 C 94.32 165.75 96.64 163.89 99.19 162.39 C 129.65 143.59 165.27 134.05 200.88 132.34 C 202.56 132.41 204.54 131.73 204.74 129.78 C 212.69 93.79 220.66 57.79 228.57 21.79 C 229.24 19.12 229.53 15.67 232.26 14.24 M 132.44 204.61 C 127.99 205.55 123.68 207.27 119.96 209.90 C 108.39 217.53 102.62 232.77 106.02 246.18 C 108.42 256.79 116.36 265.90 126.49 269.85 C 135.97 273.76 147.15 273.03 156.09 268.01 C 168.28 261.32 175.45 246.69 173.08 232.96 C 171.53 222.14 164.41 212.38 154.68 207.46 C 147.84 204.12 139.90 202.95 132.44 204.61 M 274.48 204.77 C 260.63 207.61 249.65 219.94 248.03 233.92 C 245.66 249.38 255.61 265.45 270.37 270.45 C 280.82 274.27 293.06 272.45 302.03 265.89 C 314.82 256.89 319.86 238.74 313.28 224.50 C 307.22 209.76 289.93 201.06 274.48 204.77 M 141.17 300.07 C 135.19 301.72 132.33 309.79 136.05 314.79 C 142.06 321.53 150.04 326.17 158.27 329.68 C 181.31 339.04 206.93 340.92 231.45 337.87 C 250.36 335.17 270.06 329.60 284.14 316.00 C 288.43 311.77 287.10 304.06 282.05 301.03 C 278.45 298.80 273.37 299.21 270.34 302.23 C 262.53 309.55 252.24 313.43 242.00 315.93 C 226.88 319.44 211.17 320.10 195.74 318.67 C 180.06 316.92 163.32 313.55 151.24 302.67 C 148.70 300.01 144.68 298.89 141.17 300.07 Z" />
</g>
</svg>
