<?xml version="1.0" encoding="UTF-8" ?>
<!DOCTYPE svg PUBLIC "-//W3C//DTD SVG 1.1//EN" "http://www.w3.org/Graphics/SVG/1.1/DTD/svg11.dtd">
<svg width="993pt" height="1024pt" viewBox="0 0 993 1024" version="1.1" xmlns="http://www.w3.org/2000/svg">
<g id="#fe4500ff">
<path fill="#fe4500" opacity="1.00" d=" M 394.99 10.93 C 428.46 3.53 462.74 0.09 497.00 0.15 C 544.54 0.84 592.10 7.45 637.66 21.17 C 676.48 32.80 713.75 49.57 748.26 70.82 C 781.69 91.35 812.50 116.02 840.44 143.52 C 887.63 189.89 926.25 245.24 951.76 306.38 C 976.56 365.10 988.74 428.59 991.82 492.09 C 994.11 517.73 992.14 543.47 990.01 569.04 C 985.78 613.32 975.64 657.05 959.63 698.56 C 945.34 735.72 926.41 771.05 903.85 803.84 C 863.63 861.88 813.36 913.70 753.31 951.32 C 718.68 973.13 681.09 990.19 641.93 1002.07 C 596.63 1015.84 549.38 1022.72 502.10 1024.00 L 481.41 1024.00 C 426.93 1022.75 372.59 1012.32 321.89 992.25 C 267.22 970.79 217.02 938.77 172.84 900.23 C 118.68 853.16 74.30 794.57 45.37 728.80 C 15.70 661.99 2.07 588.83 0.00 516.00 L 0.00 495.04 C 1.20 434.72 12.81 374.50 35.60 318.57 C 50.98 280.50 71.26 244.47 95.24 211.16 C 117.67 180.16 142.91 151.11 171.05 125.16 C 199.33 99.26 230.75 76.76 264.52 58.57 C 305.40 36.46 349.59 20.70 394.99 10.93 M 694.43 203.67 C 680.10 205.62 667.51 214.92 660.14 227.17 C 658.68 229.39 657.32 232.88 654.04 232.37 C 616.10 224.50 578.30 215.91 540.50 207.38 C 536.40 206.39 531.73 205.53 527.94 207.92 C 523.92 210.34 522.45 215.12 521.66 219.47 C 509.81 276.82 497.88 334.16 486.16 391.54 C 485.81 394.49 482.84 395.87 480.14 395.64 C 457.26 396.25 434.53 399.63 412.18 404.45 C 370.32 413.57 329.86 430.10 294.70 454.73 C 293.23 455.72 291.79 456.84 290.07 457.34 C 287.51 457.72 285.60 455.67 283.73 454.30 C 271.45 444.26 255.93 437.96 239.98 437.80 C 225.05 437.74 210.02 442.12 197.81 450.78 C 181.79 461.96 170.75 479.80 167.40 498.99 C 164.17 517.03 167.41 536.24 176.85 551.99 C 183.70 563.55 193.89 573.06 205.85 579.18 C 207.76 579.92 208.75 581.95 208.16 583.93 C 206.05 598.56 206.19 613.52 209.12 628.04 C 215.08 663.01 232.72 695.41 257.29 720.81 C 281.47 746.02 311.06 765.74 342.91 779.93 C 384.78 798.56 430.22 809.04 475.99 810.97 C 499.36 811.82 522.86 811.84 546.08 808.71 C 579.35 804.31 612.19 796.03 643.25 783.26 C 672.18 771.30 699.38 754.85 722.63 733.81 C 744.60 714.05 763.68 690.37 774.92 662.84 C 783.10 643.02 786.82 621.44 786.12 600.03 C 785.89 593.43 785.93 586.37 789.55 580.58 C 793.59 573.65 801.28 570.34 806.60 564.61 C 826.70 544.60 832.02 512.65 822.78 486.29 C 813.47 458.72 786.10 438.32 756.98 437.51 C 739.40 436.49 721.65 442.80 708.57 454.55 C 706.87 456.34 704.10 458.02 701.82 456.13 C 665.08 429.80 622.21 412.77 578.16 403.30 C 557.71 398.82 536.87 395.78 515.91 395.58 C 513.87 395.78 511.22 394.56 511.74 392.12 C 521.09 344.00 532.44 296.26 541.13 248.01 C 541.87 244.04 541.77 238.97 545.53 236.50 C 550.39 234.43 555.00 238.35 559.69 239.15 C 568.14 240.31 576.39 242.56 584.74 244.24 C 605.03 248.77 625.41 252.91 645.65 257.61 C 651.80 258.72 652.16 265.77 653.25 270.67 C 657.41 285.69 667.87 299.32 682.25 305.77 C 702.74 315.17 728.91 308.35 742.84 290.80 C 753.93 277.21 757.43 258.14 752.79 241.33 C 748.71 226.74 738.05 214.17 724.30 207.79 C 715.06 203.38 704.50 202.19 694.43 203.67 Z" />
<path fill="#fe4500" opacity="1.00" d=" M 371.44 513.64 C 381.55 512.91 392.23 512.35 401.79 516.39 C 414.31 521.51 424.14 532.13 429.48 544.44 C 435.00 556.88 434.82 571.47 430.12 584.14 C 421.54 607.55 394.65 623.34 370.09 617.01 C 355.94 613.63 343.74 603.62 337.14 590.73 C 330.09 577.12 328.72 560.47 334.42 546.14 C 340.48 530.24 354.22 516.43 371.44 513.64 Z" />
<path fill="#fe4500" opacity="1.00" d=" M 600.51 513.66 C 612.32 511.39 624.90 513.59 635.21 519.78 C 648.85 527.78 658.39 542.24 660.58 557.87 C 662.64 571.26 659.29 585.37 651.48 596.43 C 642.97 608.72 629.08 617.23 614.17 618.77 C 598.90 620.65 583.06 614.58 572.69 603.29 C 561.60 591.61 557.13 574.82 558.82 559.01 C 561.03 537.02 578.77 517.70 600.51 513.66 Z" />
<path fill="#fe4500" opacity="1.00" d=" M 379.29 683.31 C 384.36 681.43 389.68 684.25 393.35 687.68 C 403.77 697.25 416.58 703.93 430.03 708.16 C 448.18 713.79 467.01 717.41 486.04 717.93 C 509.95 718.70 534.22 717.00 557.20 709.96 C 570.69 705.66 584.57 700.91 595.49 691.55 C 599.02 688.67 601.93 684.69 606.49 683.36 C 611.61 681.57 617.72 684.00 620.50 688.59 C 623.41 694.37 622.43 702.14 617.73 706.72 C 604.76 719.65 588.19 728.43 570.89 734.09 C 532.43 746.80 490.86 747.95 451.10 741.49 C 431.45 738.12 412.19 731.90 394.75 722.17 C 386.89 717.74 379.42 712.37 373.46 705.56 C 367.75 698.59 370.53 686.30 379.29 683.31 Z" />
</g>
<g id="#fefefeff">
<path fill="#fefefe" opacity="1.00" d=" M 694.43 203.67 C 704.50 202.19 715.06 203.38 724.30 207.79 C 738.05 214.17 748.71 226.74 752.79 241.33 C 757.43 258.14 753.93 277.21 742.84 290.80 C 728.91 308.35 702.74 315.17 682.25 305.77 C 667.87 299.32 657.41 285.69 653.25 270.67 C 652.16 265.77 651.80 258.72 645.65 257.61 C 625.41 252.91 605.03 248.77 584.74 244.24 C 576.39 242.56 568.14 240.31 559.69 239.15 C 555.00 238.35 550.39 234.43 545.53 236.50 C 541.77 238.97 541.87 244.04 541.13 248.01 C 532.44 296.26 521.09 344.00 511.74 392.12 C 511.22 394.56 513.87 395.78 515.91 395.58 C 536.87 395.78 557.71 398.82 578.16 403.30 C 622.21 412.77 665.08 429.80 701.82 456.13 C 704.10 458.02 706.87 456.34 708.57 454.55 C 721.65 442.80 739.40 436.49 756.98 437.51 C 786.10 438.32 813.47 458.72 822.78 486.29 C 832.02 512.65 826.70 544.60 806.60 564.61 C 801.28 570.34 793.59 573.65 789.55 580.58 C 785.93 586.37 785.89 593.43 786.12 600.03 C 786.82 621.44 783.10 643.02 774.92 662.84 C 763.68 690.37 744.60 714.05 722.63 733.81 C 699.38 754.85 672.18 771.30 643.25 783.26 C 612.19 796.03 579.35 804.31 546.08 808.71 C 522.86 811.84 499.36 811.82 475.99 810.97 C 430.22 809.04 384.78 798.56 342.91 779.93 C 311.06 765.74 281.47 746.02 257.29 720.81 C 232.72 695.41 215.08 663.01 209.12 628.04 C 206.19 613.52 206.05 598.56 208.16 583.93 C 208.75 581.95 207.76 579.92 205.85 579.18 C 193.89 573.06 183.70 563.55 176.85 551.99 C 167.41 536.24 164.17 517.03 167.40 498.99 C 170.75 479.80 181.79 461.96 197.81 450.78 C 210.02 442.12 225.05 437.74 239.98 437.80 C 255.93 437.96 271.45 444.26 283.73 454.30 C 285.60 455.67 287.51 457.72 290.07 457.34 C 291.79 456.84 293.23 455.72 294.70 454.73 C 329.86 430.10 370.32 413.57 412.18 404.45 C 434.53 399.63 457.26 396.25 480.14 395.64 C 482.84 395.87 485.81 394.49 486.16 391.54 C 497.88 334.16 509.81 276.82 521.66 219.47 C 522.45 215.12 523.92 210.34 527.94 207.92 C 531.73 205.53 536.40 206.39 540.50 207.38 C 578.30 215.91 616.10 224.50 654.04 232.37 C 657.32 232.88 658.68 229.39 660.14 227.17 C 667.51 214.92 680.10 205.62 694.43 203.67 M 371.44 513.64 C 354.22 516.43 340.48 530.24 334.42 546.14 C 328.72 560.47 330.09 577.12 337.14 590.73 C 343.74 603.62 355.94 613.63 370.09 617.01 C 394.65 623.34 421.54 607.55 430.12 584.14 C 434.82 571.47 435.00 556.88 429.48 544.44 C 424.14 532.13 414.31 521.51 401.79 516.39 C 392.23 512.35 381.55 512.91 371.44 513.64 M 600.51 513.66 C 578.77 517.70 561.03 537.02 558.82 559.01 C 557.13 574.82 561.60 591.61 572.69 603.29 C 583.06 614.58 598.90 620.65 614.17 618.77 C 629.08 617.23 642.97 608.72 651.48 596.43 C 659.29 585.37 662.64 571.26 660.58 557.87 C 658.39 542.24 648.85 527.78 635.21 519.78 C 624.90 513.59 612.32 511.39 600.51 513.66 M 379.29 683.31 C 370.53 686.30 367.75 698.59 373.46 705.56 C 379.42 712.37 386.89 717.74 394.75 722.17 C 412.19 731.90 431.45 738.12 451.10 741.49 C 490.86 747.95 532.43 746.80 570.89 734.09 C 588.19 728.43 604.76 719.65 617.73 706.72 C 622.43 702.14 623.41 694.37 620.50 688.59 C 617.72 684.00 611.61 681.57 606.49 683.36 C 601.93 684.69 599.02 688.67 595.49 691.55 C 584.57 700.91 570.69 705.66 557.20 709.96 C 534.22 717.00 509.95 718.70 486.04 717.93 C 467.01 717.41 448.18 713.79 430.03 708.16 C 416.58 703.93 403.77 697.25 393.35 687.68 C 389.68 684.25 384.36 681.43 379.29 683.31 Z" />
</g>
</svg>
