<?xml version="1.0" encoding="UTF-8" ?>
<!DOCTYPE svg PUBLIC "-//W3C//DTD SVG 1.1//EN" "http://www.w3.org/Graphics/SVG/1.1/DTD/svg11.dtd">
<svg width="1307pt" height="831pt" viewBox="0 0 1307 831" version="1.1" xmlns="http://www.w3.org/2000/svg">
<g id="#63aae7ff">
<path fill="#63aae7" opacity="1.00" d=" M 571.97 2.80 C 594.24 0.45 616.66 1.41 639.01 0.69 C 645.34 0.51 651.67 -0.16 658.01 0.27 C 678.32 1.53 698.70 0.56 719.02 1.70 C 726.36 2.07 733.66 3.07 741.00 3.43 C 843.39 10.37 945.25 30.34 1041.40 66.58 C 1072.56 78.52 1102.84 92.75 1131.92 109.12 C 1161.81 125.92 1190.43 145.19 1216.21 167.85 C 1239.47 188.40 1260.48 211.79 1276.65 238.37 C 1294.48 267.55 1305.76 301.02 1307.00 335.32 L 1307.00 345.81 C 1306.11 380.00 1295.36 413.53 1277.76 442.74 C 1261.96 469.31 1241.23 492.66 1218.27 513.24 C 1191.29 537.43 1161.05 557.75 1129.44 575.36 C 1067.10 610.09 999.20 633.84 930.08 650.92 C 861.94 667.89 792.05 676.88 722.06 681.56 C 722.62 731.37 721.93 781.20 722.78 831.00 L 722.29 831.00 C 722.04 830.79 721.54 830.38 721.29 830.18 C 709.59 823.96 698.69 816.42 687.53 809.32 C 576.78 738.04 465.56 667.47 355.04 595.84 C 477.25 517.82 599.42 439.73 721.41 361.35 C 722.05 402.38 721.62 443.42 721.75 484.46 C 788.85 480.28 855.86 470.62 920.45 451.61 C 947.64 443.56 974.47 434.07 1000.25 422.20 C 1022.36 411.92 1043.90 400.15 1063.54 385.65 C 1078.52 374.49 1092.32 361.71 1104.33 347.40 C 1117.53 331.23 1127.20 311.77 1130.07 290.97 C 1132.52 273.80 1129.51 256.13 1122.74 240.26 C 1112.82 217.57 1096.35 198.17 1077.17 182.72 C 1050.73 161.45 1021.01 144.48 989.87 131.11 C 960.47 118.44 929.76 109.10 898.89 100.75 C 846.92 87.10 793.58 79.31 740.11 74.71 C 730.35 74.10 720.54 73.98 710.87 72.48 C 707.86 71.90 704.95 73.37 701.95 73.11 C 690.01 71.61 677.95 71.90 665.95 71.55 C 615.15 70.85 564.28 73.69 513.92 80.49 C 456.52 88.45 399.45 100.65 344.95 120.63 C 312.38 132.52 280.63 147.17 251.85 166.63 C 228.50 182.45 206.24 201.17 191.67 225.69 C 180.42 244.23 174.03 266.19 176.55 287.95 C 179.42 316.91 196.23 342.49 216.58 362.45 C 249.13 394.09 290.16 415.29 332.05 431.78 C 349.56 438.42 366.96 445.46 385.08 450.32 C 396.01 453.41 407.00 456.29 417.86 459.65 C 408.65 468.61 397.29 474.72 386.61 481.68 C 352.48 503.45 318.66 525.71 284.67 547.70 C 260.46 563.25 236.34 579.01 211.66 593.78 C 206.24 592.02 201.34 588.51 196.15 586.02 C 164.25 568.84 133.15 549.87 104.85 527.15 C 71.15 500.08 41.12 467.42 21.45 428.65 C 8.45 403.37 0.75 375.31 0.00 346.84 L 0.00 335.26 C 1.14 307.65 8.59 280.47 20.83 255.75 C 30.46 236.07 43.19 218.05 57.42 201.44 C 77.33 178.27 100.55 158.09 125.40 140.37 C 151.67 121.76 179.84 105.99 208.47 91.34 C 311.05 42.57 423.22 16.59 535.90 5.51 C 547.91 4.43 559.98 4.13 571.97 2.80 Z" />
</g>
</svg>
